<svg width="19" height="19" viewBox="0 0 19 19" fill="none" xmlns="http://www.w3.org/2000/svg">
<path d="M13.5964 0H5.04644C2.26379 0 0 2.26379 0 5.04644V13.5965C0 16.379 2.26379 18.6428 5.04644 18.6428H13.5965C16.379 18.6428 18.6428 16.379 18.6428 13.5965V5.04644C18.6428 2.26379 16.379 0 13.5964 0V0ZM17.5499 13.5965C17.5499 15.7764 15.7764 17.5499 13.5964 17.5499H5.04644C2.86643 17.5499 1.09292 15.7764 1.09292 13.5965V5.04644C1.09292 2.86643 2.86643 1.09292 5.04644 1.09292H13.5965C15.7764 1.09292 17.5499 2.86643 17.5499 5.04644V13.5965Z" fill="#FBF5F5"/>
<path d="M9.32114 4.22388C6.51032 4.22388 4.22363 6.51056 4.22363 9.32138C4.22363 12.1322 6.51032 14.4189 9.32114 14.4189C12.132 14.4189 14.4186 12.1322 14.4186 9.32138C14.4186 6.51056 12.132 4.22388 9.32114 4.22388ZM9.32114 13.326C7.11311 13.326 5.31655 11.5296 5.31655 9.32138C5.31655 7.11335 7.11311 5.3168 9.32114 5.3168C11.5293 5.3168 13.3257 7.11335 13.3257 9.32138C13.3257 11.5296 11.5293 13.326 9.32114 13.326Z" fill="#FBF5F5"/>
<path d="M14.5404 2.41357C13.7098 2.41357 13.0342 3.08933 13.0342 3.91983C13.0342 4.75047 13.7098 5.42622 14.5404 5.42622C15.3711 5.42622 16.0468 4.75047 16.0468 3.91983C16.0468 3.08918 15.3711 2.41357 14.5404 2.41357ZM14.5404 4.33316C14.3126 4.33316 14.1271 4.14768 14.1271 3.91983C14.1271 3.69183 14.3126 3.5065 14.5404 3.5065C14.7684 3.5065 14.9539 3.69183 14.9539 3.91983C14.9539 4.14768 14.7684 4.33316 14.5404 4.33316Z" fill="#FBF5F5"/>
</svg>
