<svg width="18" height="16" viewBox="0 0 18 16" fill="none" xmlns="http://www.w3.org/2000/svg">
<path d="M17.722 0.43804C17.5022 0.155536 17.1729 0 16.7947 0C16.5891 0 16.3713 0.0454488 16.1474 0.135336L0.910793 6.24611C0.102201 6.57031 -0.00670085 7.05683 0.000302908 7.31798C0.00730667 7.57913 0.142301 8.05843 0.967098 8.33416C0.972041 8.33574 0.976985 8.33733 0.981929 8.33877L4.14241 9.28901L5.85161 14.424C6.08465 15.1241 6.60774 15.5589 7.21693 15.5589C7.60104 15.5589 7.97883 15.3898 8.30952 15.0701L10.2644 13.179L13.0998 15.5777C13.1001 15.578 13.1005 15.5781 13.1008 15.5784L13.1277 15.6012C13.1302 15.6032 13.1328 15.6054 13.1353 15.6074C13.4504 15.8642 13.7944 15.9999 14.1305 16H14.1306C14.7872 16 15.31 15.4894 15.4623 14.6993L17.9588 1.74798C18.059 1.22813 17.975 0.762963 17.722 0.43804ZM5.19971 9.10852L11.2972 5.83577L7.50051 10.0743C7.4383 10.1437 7.39422 10.2287 7.37252 10.3212L6.64042 13.4368L5.19971 9.10852ZM7.595 14.2549C7.56973 14.2793 7.54432 14.3011 7.51892 14.3211L8.19814 11.4309L9.43369 12.4762L7.595 14.2549ZM16.9251 1.52795L14.4286 14.4794C14.4046 14.6034 14.3278 14.8918 14.1305 14.8918C14.033 14.8918 13.9105 14.8359 13.7851 14.7345L10.5721 12.0165C10.5717 12.0161 10.5712 12.0157 10.5706 12.0154L8.65888 10.398L14.1494 4.26844C14.3252 4.07221 14.3411 3.77167 14.1872 3.55612C14.0331 3.34056 13.7539 3.27275 13.5255 3.39539L4.49507 8.24239L1.29161 7.27946L16.5236 1.17056C16.6522 1.11891 16.7421 1.10809 16.7947 1.10809C16.8269 1.10809 16.8843 1.11213 16.9056 1.13968C16.9336 1.17561 16.9693 1.2981 16.9251 1.52795Z" fill="#FBF5F5"/>
</svg>
