<svg width="19" height="19" viewBox="0 0 19 19" fill="none" xmlns="http://www.w3.org/2000/svg">
<path d="M16.3523 2.64796C14.6447 0.940307 12.3748 0 9.95962 0C9.95948 0 9.95891 0 9.95877 0C8.76429 0.000142234 7.60025 0.231414 6.49922 0.687558C5.39805 1.1437 4.41151 1.80324 3.56679 2.64796C1.85927 4.35548 0.918963 6.62581 0.918963 9.04066C0.918963 10.4808 1.26644 11.9119 1.92484 13.1871L0.405215 17.5283C0.298113 17.8345 0.373923 18.1674 0.603488 18.3968C0.76407 18.5575 0.97543 18.6429 1.19276 18.6429C1.28593 18.6429 1.38008 18.6272 1.47197 18.5951L5.81323 17.0756C7.08835 17.734 8.51951 18.0815 9.95962 18.0815C12.3745 18.0815 14.6447 17.141 16.3523 15.4335C18.0598 13.726 19.0003 11.4556 19.0003 9.0408C19.0003 6.62581 18.06 4.35548 16.3523 2.64796ZM15.5791 14.6603C14.0781 16.1614 12.0823 16.988 9.95962 16.988C8.66103 16.988 7.37097 16.6668 6.22883 16.0589C6.02174 15.9488 5.77696 15.9299 5.5572 16.0068L1.61306 17.3872L2.99358 13.4431C3.07053 13.223 3.05147 12.9783 2.94138 12.7713C2.33362 11.6295 2.01231 10.3394 2.01231 9.04066C2.01231 6.91796 2.83898 4.92214 4.33997 3.42115C5.84082 1.9203 7.83636 1.09363 9.95891 1.09335H9.95962C12.0825 1.09335 14.0781 1.92001 15.5791 3.42115C17.0803 4.92214 17.9069 6.91782 17.9069 9.04066C17.9069 11.1635 17.0803 13.1593 15.5791 14.6603Z" fill="#FBF5F5"/>
<path d="M13.3192 9.8482C12.9033 9.43231 12.2266 9.43231 11.8107 9.8482L11.3558 10.3031C10.2264 9.68762 9.31236 8.77363 8.69677 7.64415L9.15164 7.18929C9.56767 6.77339 9.56767 6.09665 9.15164 5.68075L7.92587 4.45498C7.50997 4.03909 6.83323 4.03909 6.41734 4.45498L5.43678 5.43554C4.8751 5.99722 4.84708 6.96285 5.35784 8.15462C5.80132 9.18937 6.61291 10.3267 7.64311 11.3569C8.6733 12.3871 9.81061 13.1987 10.8454 13.6421C11.4116 13.8848 11.9266 14.0058 12.3717 14.0058C12.8634 14.0058 13.2696 13.8581 13.5644 13.5632L14.545 12.5825V12.5826C14.7465 12.3811 14.8575 12.1133 14.8575 11.8284C14.8575 11.5433 14.7465 11.2755 14.545 11.0741L13.3192 9.8482ZM12.7913 12.79C12.631 12.9503 12.138 13.0065 11.2762 12.6373C10.3662 12.2473 9.35048 11.5179 8.41629 10.5837C7.4821 9.6495 6.75286 8.63395 6.36286 7.72394C5.99348 6.86215 6.04966 6.36902 6.20996 6.20873L7.17174 5.24694L8.35968 6.43502L7.79032 7.00452C7.53287 7.26197 7.47072 7.6524 7.63585 7.97612C8.38443 9.44397 9.55601 10.6156 11.0239 11.3641C11.3477 11.5293 11.7382 11.4672 11.9956 11.2097L12.565 10.6403L13.753 11.8284L12.7913 12.79Z" fill="#FBF5F5"/>
</svg>
